# xmcd
#
# Track frame offsets:
#	150
#	34500
#	58175
#	91175
#	138725
#	172925
#	206100
#	239125
#
# Disc length: 3612
#
# Revision: 1
# Processed by: cddbd v1.5.1PL0 Copyright (c) Steve Scherf et al.
# Submitted via: CDex 1.51
# Normalized: r0:TRMNUM
#
DISCID=710e1a08
DTITLE=Musicflex - New Age Cooldown
DYEAR=1900
DGENRE=New Age
TTITLE0=Scenic Dreams
TTITLE1=Emerald Sea
TTITLE2=Free Spirit
TTITLE3=Reunion
TTITLE4=Situation Up
TTITLE5=Dusk
TTITLE6=Light Touch
TTITLE7=After The Storm
EXTD=
EXTT0=
EXTT1=
EXTT2=
EXTT3=
EXTT4=
EXTT5=
EXTT6=
EXTT7=
PLAYORDER=
